<svg xmlns="http://www.w3.org/2000/svg" viewBox="0 0 512 512" width="512" height="512">
  <defs>
    <clipPath id="circleClip">
      <circle cx="256" cy="230" r="180"/>
    </clipPath>
  </defs>

  <!-- Outer red border circle -->
  <circle cx="256" cy="230" r="190" fill="#8B0000"/>

  <!-- Main navy blue circle -->
  <circle cx="256" cy="230" r="180" fill="#001F5B"/>

  <!-- White rope border circle -->
  <circle cx="256" cy="230" r="165" fill="none" stroke="#FFFFFF" stroke-width="4"/>
  <circle cx="256" cy="230" r="160" fill="none" stroke="#FFFFFF" stroke-width="2"/>

  <!-- Inner navy circle -->
  <circle cx="256" cy="230" r="155" fill="#001F5B"/>

  <!-- Red inner circle -->
  <circle cx="256" cy="230" r="145" fill="#BF0A30"/>

  <!-- White inner circle -->
  <circle cx="256" cy="230" r="130" fill="#FFFFFF"/>

  <!-- Inner navy circle (center) -->
  <circle cx="256" cy="230" r="120" fill="#001F5B"/>

  <!-- Text "GentsConcerts" arched at top -->
  <path id="topArc" d="M 100,230 A 156,156 0 0,1 412,230" fill="none"/>
  <text font-family="Impact, Arial Black, sans-serif" font-size="32" font-weight="bold" fill="#FFFFFF" text-anchor="middle" letter-spacing="1">
    <textPath href="#topArc" startOffset="50%">GentsConcerts</textPath>
  </text>

  <!-- Left star -->
  <polygon points="115,250 118,260 128,260 120,266 123,276 115,270 107,276 110,266 102,260 112,260" fill="#FFFFFF"/>

  <!-- Right star -->
  <polygon points="397,250 400,260 410,260 402,266 405,276 397,270 389,276 392,266 384,260 394,260" fill="#FFFFFF"/>

  <!-- Microphone -->
  <g transform="translate(256, 240)">
    <!-- Microphone handle -->
    <rect x="-8" y="10" width="16" height="55" rx="3" fill="#FFFFFF"/>
    <!-- Microphone grille -->
    <ellipse cx="0" cy="-10" rx="22" ry="28" fill="#FFFFFF"/>
    <ellipse cx="0" cy="-10" rx="18" ry="24" fill="#001F5B"/>
    <!-- Microphone grille dots -->
    <circle cx="-8" cy="-18" r="2" fill="#FFFFFF"/>
    <circle cx="-2" cy="-22" r="2" fill="#FFFFFF"/>
    <circle cx="4" cy="-20" r="2" fill="#FFFFFF"/>
    <circle cx="8" cy="-14" r="2" fill="#FFFFFF"/>
    <circle cx="-6" cy="-12" r="2" fill="#FFFFFF"/>
    <circle cx="2" cy="-10" r="2" fill="#FFFFFF"/>
    <circle cx="10" cy="-8" r="2" fill="#FFFFFF"/>
    <circle cx="-4" cy="-6" r="2" fill="#FFFFFF"/>
    <circle cx="6" cy="-4" r="2" fill="#FFFFFF"/>
    <circle cx="0" cy="-2" r="2" fill="#FFFFFF"/>
    <circle cx="-8" cy="-2" r="2" fill="#FFFFFF"/>
    <circle cx="12" cy="-2" r="2" fill="#FFFFFF"/>

    <!-- Music notes -->
    <!-- Note 1 -->
    <path d="M -35,30 Q -35,-5 -20,-10 L -20,-25" fill="none" stroke="#FFFFFF" stroke-width="3"/>
    <ellipse cx="-20" cy="-28" rx="8" ry="6" fill="#FFFFFF" transform="rotate(-20, -20, -28)"/>
    <ellipse cx="-35" cy="32" rx="8" ry="6" fill="#FFFFFF"/>

    <!-- Note 2 -->
    <path d="M 30,25 Q 30,-5 18,-10 L 18,-30" fill="none" stroke="#FFFFFF" stroke-width="3"/>
    <ellipse cx="18" cy="-33" rx="8" ry="6" fill="#FFFFFF" transform="rotate(15, 18, -33)"/>
    <ellipse cx="30" cy="27" rx="8" ry="6" fill="#FFFFFF"/>
  </g>

  <!-- Bottom banner/ribbon -->
  <path d="M 80,370 L 120,370 L 120,355 L 200,355 L 200,370 L 312,370 L 312,355 L 392,355 L 392,370 L 432,370 L 432,395 L 412,395 L 412,420 L 392,420 L 392,400 L 312,400 L 312,420 L 200,420 L 200,400 L 120,400 L 120,420 L 100,420 L 100,395 L 80,395 Z" fill="#001F5B"/>

  <!-- Banner text "GentsConcerts" -->
  <text x="256" y="392" font-family="Impact, Arial Black, sans-serif" font-size="28" font-weight="bold" fill="#FFFFFF" text-anchor="middle">GentsConcerts</text>

  <!-- Decorative dashes -->
  <line x1="200" y1="430" x2="220" y2="430" stroke="#FFFFFF" stroke-width="3"/>
  <line x1="246" y1="430" x2="266" y2="430" stroke="#FFFFFF" stroke-width="3"/>
  <line x1="292" y1="430" x2="312" y2="430" stroke="#FFFFFF" stroke-width="3"/>

  <!-- Subtitle -->
  <text x="256" y="450" font-family="Arial, Helvetica, sans-serif" font-size="14" fill="#FFFFFF" text-anchor="middle">Liberia's Premier Event Platform</text>
</svg>
